<svg xmlns="http://www.w3.org/2000/svg" width="355.263" height="40.065" viewBox="0 0 355.263 40.065">
  <g id="logo-LibertyCenterOne" transform="translate(-85.321 -56.315)">
    <g id="Group_633" data-name="Group 633" transform="translate(85.321 77.902)">
      <path id="Path_34" data-name="Path 34" d="M85.321,142.551h2.541v15.956h8.411v1.938H85.321Z" transform="translate(-85.321 -142.259)" fill="#fff"/>
      <path id="Path_35" data-name="Path 35" d="M165.213,142.551v17.894h-2.541V142.551Z" transform="translate(-143.047 -142.259)" fill="#fff"/>
      <path id="Path_36" data-name="Path 36" d="M213.2,142.4a27.02,27.02,0,0,1,4.643-.372c2.541,0,4.176.4,5.4,1.3a3.638,3.638,0,0,1,1.635,3.159c0,1.726-1.256,3.239-3.329,3.929v.053c1.869.425,4.06,1.832,4.06,4.487a4.627,4.627,0,0,1-1.665,3.584c-1.373,1.142-3.592,1.673-6.8,1.673A32.662,32.662,0,0,1,213.2,160Zm2.541,7.328h2.307c2.687,0,4.264-1.274,4.264-3,0-2.1-1.752-2.921-4.322-2.921a11.978,11.978,0,0,0-2.249.159Zm0,8.576a14.963,14.963,0,0,0,2.132.106c2.628,0,5.052-.876,5.052-3.478,0-2.443-2.307-3.451-5.082-3.451h-2.1Z" transform="translate(-180.759 -141.868)" fill="#fff"/>
      <path id="Path_37" data-name="Path 37" d="M308.8,152.056h-7.652v6.451h8.528v1.938H298.612V142.551h10.631v1.938h-8.09v5.655H308.8Z" transform="translate(-244.498 -142.259)" fill="#fff"/>
      <path id="Path_38" data-name="Path 38" d="M378.265,142.4a29.069,29.069,0,0,1,4.877-.372c2.716,0,4.468.452,5.7,1.46a4.269,4.269,0,0,1,1.548,3.4,4.783,4.783,0,0,1-3.709,4.566v.08c1.519.478,2.424,1.752,2.891,3.611a26.55,26.55,0,0,0,1.519,4.912h-2.628a21.569,21.569,0,0,1-1.314-4.275c-.584-2.469-1.635-3.4-3.943-3.478h-2.395v7.753h-2.541Zm2.541,8.151h2.6c2.716,0,4.439-1.354,4.439-3.4,0-2.31-1.84-3.319-4.527-3.345a11.451,11.451,0,0,0-2.512.213Z" transform="translate(-303.942 -141.868)" fill="#fff"/>
      <path id="Path_39" data-name="Path 39" d="M461.371,144.516h-5.987v-1.965h14.574v1.965h-6.016v15.93h-2.57Z" transform="translate(-361.495 -142.259)" fill="#fff"/>
      <path id="Path_40" data-name="Path 40" d="M546.669,160.445v-7.593l-6.221-10.3h2.891l2.775,4.938c.759,1.354,1.343,2.442,1.957,3.69h.058c.555-1.168,1.226-2.336,1.986-3.69l2.833-4.938h2.891l-6.6,10.275v7.62Z" transform="translate(-424.977 -142.259)" fill="#fff"/>
      <path id="Path_41" data-name="Path 41" d="M690.735,159a13.721,13.721,0,0,1-5.2.85c-5.549,0-9.726-3.186-9.726-9.054,0-5.6,4.176-9.4,10.28-9.4a11.455,11.455,0,0,1,4.673.8l-.614,1.885a10.04,10.04,0,0,0-3.972-.744c-4.614,0-7.681,2.681-7.681,7.381,0,4.381,2.774,7.195,7.564,7.195a11.059,11.059,0,0,0,4.147-.743Z" transform="translate(-525.997 -141.399)" fill="#fff"/>
      <path id="Path_42" data-name="Path 42" d="M780.391,152.056h-7.652v6.451h8.528v1.938H770.2V142.551h10.631v1.938h-8.09v5.655h7.652Z" transform="translate(-596.437 -142.259)" fill="#fff"/>
      <path id="Path_43" data-name="Path 43" d="M849.852,160.445V142.551h2.775l6.308,9.053a49.522,49.522,0,0,1,3.534,5.814l.058-.026a72.448,72.448,0,0,1-.292-7.354v-7.487h2.395v17.894h-2.57l-6.25-9.08a55.525,55.525,0,0,1-3.68-5.974l-.088.027c.146,2.257.2,4.407.2,7.38v7.646Z" transform="translate(-655.882 -142.259)" fill="#fff"/>
      <path id="Path_44" data-name="Path 44" d="M945.736,144.516h-5.987v-1.965h14.573v1.965h-6.016v15.93h-2.57Z" transform="translate(-722.971 -142.259)" fill="#fff"/>
      <path id="Path_45" data-name="Path 45" d="M1039.035,152.056h-7.652v6.451h8.528v1.938h-11.069V142.551h10.63v1.938h-8.09v5.655h7.652Z" transform="translate(-789.46 -142.259)" fill="#fff"/>
      <path id="Path_46" data-name="Path 46" d="M1108.494,142.4a29.075,29.075,0,0,1,4.878-.372c2.716,0,4.468.452,5.7,1.46a4.269,4.269,0,0,1,1.548,3.4,4.783,4.783,0,0,1-3.709,4.566v.08c1.519.478,2.424,1.752,2.891,3.611a26.494,26.494,0,0,0,1.519,4.912h-2.629a21.593,21.593,0,0,1-1.314-4.275c-.584-2.469-1.635-3.4-3.943-3.478h-2.395v7.753h-2.541Zm2.541,8.151h2.6c2.716,0,4.439-1.354,4.439-3.4,0-2.31-1.84-3.319-4.527-3.345a11.446,11.446,0,0,0-2.511.213Z" transform="translate(-848.903 -141.868)" fill="#fff"/>
      <path id="Path_47" data-name="Path 47" d="M1254.252,150.452c0,6.16-4.118,9.425-9.141,9.425-5.2,0-8.849-3.664-8.849-9.08,0-5.681,3.884-9.4,9.141-9.4C1250.777,141.4,1254.252,145.143,1254.252,150.452Zm-15.274.292c0,3.823,2.278,7.248,6.279,7.248,4.031,0,6.308-3.372,6.308-7.434,0-3.558-2.044-7.275-6.279-7.275C1241.081,143.284,1238.978,146.815,1238.978,150.744Z" transform="translate(-944.255 -141.399)" fill="#57c3c4"/>
      <path id="Path_48" data-name="Path 48" d="M1343.195,160.445V142.551h2.775l6.308,9.053a49.491,49.491,0,0,1,3.534,5.814l.058-.026a72.342,72.342,0,0,1-.292-7.354v-7.487h2.394v17.894h-2.57l-6.25-9.08a55.545,55.545,0,0,1-3.68-5.974l-.088.027c.146,2.257.2,4.407.2,7.38v7.646Z" transform="translate(-1024.057 -142.259)" fill="#57c3c4"/>
      <path id="Path_49" data-name="Path 49" d="M1452.15,152.056H1444.5v6.451h8.528v1.938h-11.069V142.551h10.63v1.938h-8.09v5.655h7.652Z" transform="translate(-1097.763 -142.259)" fill="#57c3c4"/>
    </g>
    <g id="Group_634" data-name="Group 634" transform="translate(366.674 56.315)">
      <path id="Path_50" data-name="Path 50" d="M1213.63,108.407l-7.483-12.648,9.587,9.906" transform="translate(-1203.134 -85.752)" fill="#57c3c4"/>
      <path id="Path_51" data-name="Path 51" d="M1276.757,88.412l4.853-12.585-1.579,14.33" transform="translate(-1255.829 -70.876)" fill="#57c3c4"/>
      <path id="Path_52" data-name="Path 52" d="M1203.623,118.193l-9.354-4.486,9.587,9.035.317.256a9.6,9.6,0,0,1,10.007-8.363c4.317.061,7.172,2.557,7.964,4.356l.525-1.546,4.794-10.778-7.074,7.352A19.174,19.174,0,0,0,1203.623,118.193Z" transform="translate(-1194.269 -93.892)" fill="#57c3c4"/>
      <path id="Path_53" data-name="Path 53" d="M1248.375,79.076a12.854,12.854,0,0,0-9.551-5.519l-6.417-17.242,1.813,18.566a10.472,10.472,0,0,0-5.688,9.108l.948-1.086.176-1.385,1.159-1.2c-.8.733,9.177-7.687,15.242-2.48Z" transform="translate(-1219.839 -56.315)" fill="#57c3c4"/>
    </g>
  </g>
</svg>
